<mxfile host="www.draw.io" modified="2019-12-06T02:21:01.083Z" agent="Mozilla/5.0 (Windows NT 6.1; Win64; x64) AppleWebKit/537.36 (KHTML, like Gecko) Chrome/77.0.3865.90 Safari/537.36" etag="WNeHqgglr0GuxYEk5c14" version="12.3.6" type="github" pages="1">
  <diagram id="_nJWSW1GeGvKb51VGCQV" name="第 1 页">
    <mxGraphModel dx="854" dy="478" grid="1" gridSize="10" guides="1" tooltips="1" connect="1" arrows="1" fold="1" page="1" pageScale="1" pageWidth="827" pageHeight="1169" math="0" shadow="0">
      <root>
        <mxCell id="0"/>
        <mxCell id="1" parent="0"/>
        <mxCell id="FEzbrlHWn4osAoL8CdlV-1" value="" style="rounded=1;whiteSpace=wrap;html=1;direction=south;fillColor=#ffe6cc;strokeColor=#d79b00;gradientColor=#CCFFCC;gradientDirection=east;" parent="1" vertex="1">
          <mxGeometry x="160" y="85" width="110" height="430" as="geometry"/>
        </mxCell>
        <mxCell id="FEzbrlHWn4osAoL8CdlV-2" value="" style="rounded=1;whiteSpace=wrap;html=1;direction=south;fillColor=#ffe6cc;strokeColor=#d79b00;gradientColor=#CCFFE6;" parent="1" vertex="1">
          <mxGeometry x="640" y="85" width="110" height="430" as="geometry"/>
        </mxCell>
        <mxCell id="FEzbrlHWn4osAoL8CdlV-3" value="" style="rounded=1;whiteSpace=wrap;html=1;fillColor=#dae8fc;strokeColor=#6c8ebf;gradientColor=#ffffff;" parent="1" vertex="1">
          <mxGeometry x="280" y="85" width="350" height="70" as="geometry"/>
        </mxCell>
        <mxCell id="FEzbrlHWn4osAoL8CdlV-4" value="" style="rounded=1;whiteSpace=wrap;html=1;fillColor=#e1d5e7;strokeColor=#9673a6;gradientColor=#ffffff;" parent="1" vertex="1">
          <mxGeometry x="280" y="365" width="330" height="150" as="geometry"/>
        </mxCell>
        <mxCell id="FEzbrlHWn4osAoL8CdlV-5" value="" style="rounded=1;whiteSpace=wrap;html=1;fillColor=#FFB570;strokeColor=#d79b00;gradientColor=#ffffff;" parent="1" vertex="1">
          <mxGeometry x="280" y="265" width="350" height="70" as="geometry"/>
        </mxCell>
        <mxCell id="FEzbrlHWn4osAoL8CdlV-6" value="" style="rounded=1;whiteSpace=wrap;html=1;fillColor=#ffe6cc;strokeColor=#d79b00;gradientColor=#ffffff;" parent="1" vertex="1">
          <mxGeometry x="280" y="170" width="350" height="80" as="geometry"/>
        </mxCell>
        <mxCell id="FEzbrlHWn4osAoL8CdlV-7" value="应用层" style="text;html=1;strokeColor=none;fillColor=none;align=center;verticalAlign=middle;whiteSpace=wrap;rounded=0;direction=south;" parent="1" vertex="1">
          <mxGeometry x="290" y="95" width="20" height="40" as="geometry"/>
        </mxCell>
        <mxCell id="FEzbrlHWn4osAoL8CdlV-8" value="服务层" style="text;html=1;strokeColor=none;fillColor=none;align=center;verticalAlign=middle;whiteSpace=wrap;rounded=0;direction=south;" parent="1" vertex="1">
          <mxGeometry x="290" y="190" width="20" height="40" as="geometry"/>
        </mxCell>
        <mxCell id="FEzbrlHWn4osAoL8CdlV-9" value="数据层" style="text;html=1;strokeColor=none;fillColor=none;align=center;verticalAlign=middle;whiteSpace=wrap;rounded=0;direction=south;" parent="1" vertex="1">
          <mxGeometry x="290" y="277.5" width="20" height="40" as="geometry"/>
        </mxCell>
        <mxCell id="FEzbrlHWn4osAoL8CdlV-11" value="基础设施层" style="text;html=1;strokeColor=none;fillColor=none;align=center;verticalAlign=middle;whiteSpace=wrap;rounded=0;direction=south;" parent="1" vertex="1">
          <mxGeometry x="290" y="420" width="20" height="40" as="geometry"/>
        </mxCell>
        <mxCell id="FEzbrlHWn4osAoL8CdlV-12" value="" style="rounded=0;whiteSpace=wrap;html=1;fillColor=#f5f5f5;strokeColor=#666666;fontColor=#333333;" parent="1" vertex="1">
          <mxGeometry x="340" y="375" width="260" height="60" as="geometry"/>
        </mxCell>
        <mxCell id="FEzbrlHWn4osAoL8CdlV-13" value="" style="rounded=0;whiteSpace=wrap;html=1;fillColor=#dae8fc;strokeColor=#6c8ebf;" parent="1" vertex="1">
          <mxGeometry x="340" y="445" width="260" height="60" as="geometry"/>
        </mxCell>
        <mxCell id="FEzbrlHWn4osAoL8CdlV-14" value="基础软件" style="text;html=1;strokeColor=none;fillColor=none;align=center;verticalAlign=middle;whiteSpace=wrap;rounded=0;direction=south;" parent="1" vertex="1">
          <mxGeometry x="340" y="385" width="20" height="40" as="geometry"/>
        </mxCell>
        <mxCell id="FEzbrlHWn4osAoL8CdlV-15" value="Linux OS" style="rounded=1;whiteSpace=wrap;html=1;fillColor=#ffe6cc;strokeColor=#d79b00;gradientColor=#ffffff;" parent="1" vertex="1">
          <mxGeometry x="368" y="393" width="62" height="25" as="geometry"/>
        </mxCell>
        <mxCell id="FEzbrlHWn4osAoL8CdlV-16" value="MySQL" style="rounded=1;whiteSpace=wrap;html=1;fillColor=#ffe6cc;strokeColor=#d79b00;gradientColor=#ffffff;" parent="1" vertex="1">
          <mxGeometry x="449" y="393" width="62" height="25" as="geometry"/>
        </mxCell>
        <mxCell id="FEzbrlHWn4osAoL8CdlV-17" value="基础硬件" style="text;html=1;strokeColor=none;fillColor=none;align=center;verticalAlign=middle;whiteSpace=wrap;rounded=0;direction=south;" parent="1" vertex="1">
          <mxGeometry x="340" y="455" width="20" height="40" as="geometry"/>
        </mxCell>
        <mxCell id="FEzbrlHWn4osAoL8CdlV-18" value="" style="verticalLabelPosition=bottom;aspect=fixed;html=1;verticalAlign=top;strokeColor=none;align=center;outlineConnect=0;shape=mxgraph.citrix.file_server;" parent="1" vertex="1">
          <mxGeometry x="368" y="449" width="25" height="34" as="geometry"/>
        </mxCell>
        <mxCell id="FEzbrlHWn4osAoL8CdlV-19" value="" style="verticalLabelPosition=bottom;aspect=fixed;html=1;verticalAlign=top;strokeColor=none;align=center;outlineConnect=0;shape=mxgraph.citrix.database_server;" parent="1" vertex="1">
          <mxGeometry x="397.5" y="449" width="31" height="35" as="geometry"/>
        </mxCell>
        <mxCell id="FEzbrlHWn4osAoL8CdlV-21" value="" style="verticalLabelPosition=bottom;aspect=fixed;html=1;verticalAlign=top;strokeColor=none;align=center;outlineConnect=0;shape=mxgraph.citrix.dns_server;" parent="1" vertex="1">
          <mxGeometry x="430" y="449" width="30" height="36" as="geometry"/>
        </mxCell>
        <mxCell id="FEzbrlHWn4osAoL8CdlV-22" value="服务器集群" style="text;html=1;strokeColor=none;fillColor=none;align=center;verticalAlign=middle;whiteSpace=wrap;rounded=0;" parent="1" vertex="1">
          <mxGeometry x="368" y="484" width="67" height="20" as="geometry"/>
        </mxCell>
        <mxCell id="FEzbrlHWn4osAoL8CdlV-23" value="" style="verticalLabelPosition=bottom;aspect=fixed;html=1;verticalAlign=top;strokeColor=none;align=center;outlineConnect=0;shape=mxgraph.citrix.router;fillColor=#FFFFFF;" parent="1" vertex="1">
          <mxGeometry x="547.5" y="454" width="45" height="30" as="geometry"/>
        </mxCell>
        <mxCell id="FEzbrlHWn4osAoL8CdlV-24" value="" style="verticalLabelPosition=bottom;aspect=fixed;html=1;verticalAlign=top;strokeColor=none;align=center;outlineConnect=0;shape=mxgraph.citrix.netscaler_sdx;" parent="1" vertex="1">
          <mxGeometry x="477" y="457.5" width="48" height="23" as="geometry"/>
        </mxCell>
        <mxCell id="FEzbrlHWn4osAoL8CdlV-25" value="分布式存储" style="text;html=1;strokeColor=none;fillColor=none;align=center;verticalAlign=middle;whiteSpace=wrap;rounded=0;" parent="1" vertex="1">
          <mxGeometry x="469" y="484" width="64" height="20" as="geometry"/>
        </mxCell>
        <mxCell id="FEzbrlHWn4osAoL8CdlV-26" value="网络" style="text;html=1;strokeColor=none;fillColor=none;align=center;verticalAlign=middle;whiteSpace=wrap;rounded=0;" parent="1" vertex="1">
          <mxGeometry x="538" y="485" width="64" height="20" as="geometry"/>
        </mxCell>
        <mxCell id="FEzbrlHWn4osAoL8CdlV-27" value="企业货主" style="ellipse;whiteSpace=wrap;html=1;fillColor=#d5e8d4;strokeColor=#82b366;gradientColor=#ffffff;" parent="1" vertex="1">
          <mxGeometry x="313" y="273" width="80" height="22" as="geometry"/>
        </mxCell>
        <mxCell id="FEzbrlHWn4osAoL8CdlV-28" value="货源订单" style="ellipse;whiteSpace=wrap;html=1;fillColor=#d5e8d4;strokeColor=#82b366;gradientColor=#ffffff;" parent="1" vertex="1">
          <mxGeometry x="394" y="270" width="77" height="25" as="geometry"/>
        </mxCell>
        <mxCell id="FEzbrlHWn4osAoL8CdlV-29" value="承运商信息" style="ellipse;whiteSpace=wrap;html=1;fillColor=#d5e8d4;strokeColor=#82b366;gradientColor=#ffffff;" parent="1" vertex="1">
          <mxGeometry x="478" y="267" width="82" height="22" as="geometry"/>
        </mxCell>
        <mxCell id="FEzbrlHWn4osAoL8CdlV-30" value="司机信息" style="ellipse;whiteSpace=wrap;html=1;fillColor=#d5e8d4;strokeColor=#82b366;gradientColor=#ffffff;" parent="1" vertex="1">
          <mxGeometry x="310" y="307.5" width="77" height="20" as="geometry"/>
        </mxCell>
        <mxCell id="FEzbrlHWn4osAoL8CdlV-31" value="运单信息" style="ellipse;whiteSpace=wrap;html=1;fillColor=#d5e8d4;strokeColor=#82b366;gradientColor=#ffffff;" parent="1" vertex="1">
          <mxGeometry x="389.5" y="308" width="67" height="20" as="geometry"/>
        </mxCell>
        <mxCell id="FEzbrlHWn4osAoL8CdlV-32" value="支付数据" style="ellipse;whiteSpace=wrap;html=1;fillColor=#d5e8d4;strokeColor=#82b366;gradientColor=#ffffff;" parent="1" vertex="1">
          <mxGeometry x="460" y="307.5" width="70" height="20" as="geometry"/>
        </mxCell>
        <mxCell id="FEzbrlHWn4osAoL8CdlV-33" value="开票数据" style="ellipse;whiteSpace=wrap;html=1;fillColor=#d5e8d4;strokeColor=#82b366;gradientColor=#ffffff;" parent="1" vertex="1">
          <mxGeometry x="533" y="307.5" width="70" height="20" as="geometry"/>
        </mxCell>
        <mxCell id="FEzbrlHWn4osAoL8CdlV-34" style="edgeStyle=orthogonalEdgeStyle;rounded=0;orthogonalLoop=1;jettySize=auto;html=1;exitX=0.5;exitY=1;exitDx=0;exitDy=0;" parent="1" source="FEzbrlHWn4osAoL8CdlV-31" target="FEzbrlHWn4osAoL8CdlV-31" edge="1">
          <mxGeometry relative="1" as="geometry"/>
        </mxCell>
        <mxCell id="FEzbrlHWn4osAoL8CdlV-37" value="统一门户" style="rounded=0;whiteSpace=wrap;html=1;fillColor=#dae8fc;strokeColor=#6c8ebf;gradientColor=#ffffff;" parent="1" vertex="1">
          <mxGeometry x="327" y="185" width="62" height="25" as="geometry"/>
        </mxCell>
        <mxCell id="FEzbrlHWn4osAoL8CdlV-38" value="基础配置" style="rounded=0;whiteSpace=wrap;html=1;fillColor=#dae8fc;strokeColor=#6c8ebf;gradientColor=#ffffff;" parent="1" vertex="1">
          <mxGeometry x="400.5" y="185" width="62" height="25" as="geometry"/>
        </mxCell>
        <mxCell id="FEzbrlHWn4osAoL8CdlV-39" value="认证服务" style="rounded=0;whiteSpace=wrap;html=1;fillColor=#dae8fc;strokeColor=#6c8ebf;gradientColor=#ffffff;" parent="1" vertex="1">
          <mxGeometry x="476" y="185" width="66" height="25" as="geometry"/>
        </mxCell>
        <mxCell id="FEzbrlHWn4osAoL8CdlV-40" value="货源订单" style="rounded=0;whiteSpace=wrap;html=1;fillColor=#dae8fc;strokeColor=#6c8ebf;gradientColor=#ffffff;" parent="1" vertex="1">
          <mxGeometry x="325.5" y="217.5" width="62" height="25" as="geometry"/>
        </mxCell>
        <mxCell id="FEzbrlHWn4osAoL8CdlV-41" value="运单管理" style="rounded=0;whiteSpace=wrap;html=1;fillColor=#dae8fc;strokeColor=#6c8ebf;gradientColor=#ffffff;" parent="1" vertex="1">
          <mxGeometry x="401.5" y="219" width="62" height="25" as="geometry"/>
        </mxCell>
        <mxCell id="FEzbrlHWn4osAoL8CdlV-42" value="统计报表" style="rounded=0;whiteSpace=wrap;html=1;fillColor=#dae8fc;strokeColor=#6c8ebf;gradientColor=#ffffff;" parent="1" vertex="1">
          <mxGeometry x="477" y="217.5" width="66" height="25" as="geometry"/>
        </mxCell>
        <mxCell id="FEzbrlHWn4osAoL8CdlV-43" value="平台门户" style="rounded=0;whiteSpace=wrap;html=1;fillColor=#fff2cc;strokeColor=#d6b656;gradientColor=#ffffff;" parent="1" vertex="1">
          <mxGeometry x="319" y="103" width="72" height="25" as="geometry"/>
        </mxCell>
        <mxCell id="FEzbrlHWn4osAoL8CdlV-44" value="手机应用平台" style="rounded=0;whiteSpace=wrap;html=1;fillColor=#fff2cc;strokeColor=#d6b656;gradientColor=#ffffff;" parent="1" vertex="1">
          <mxGeometry x="405" y="103" width="85" height="25" as="geometry"/>
        </mxCell>
        <mxCell id="FEzbrlHWn4osAoL8CdlV-45" value="系统管理平台" style="rounded=0;whiteSpace=wrap;html=1;fillColor=#fff2cc;strokeColor=#d6b656;gradientColor=#ffffff;" parent="1" vertex="1">
          <mxGeometry x="505" y="102.5" width="85" height="25" as="geometry"/>
        </mxCell>
        <mxCell id="FEzbrlHWn4osAoL8CdlV-46" value="Token/Http" style="rounded=0;whiteSpace=wrap;html=1;fillColor=#f8cecc;strokeColor=#b85450;" parent="1" vertex="1">
          <mxGeometry x="177" y="115" width="70" height="60" as="geometry"/>
        </mxCell>
        <mxCell id="FEzbrlHWn4osAoL8CdlV-47" value="Cluster" style="rounded=0;whiteSpace=wrap;html=1;fillColor=#f8cecc;strokeColor=#b85450;" parent="1" vertex="1">
          <mxGeometry x="177" y="193" width="70" height="52" as="geometry"/>
        </mxCell>
        <mxCell id="FEzbrlHWn4osAoL8CdlV-48" value="RDBMS" style="rounded=0;whiteSpace=wrap;html=1;fillColor=#f8cecc;strokeColor=#b85450;" parent="1" vertex="1">
          <mxGeometry x="177" y="263" width="70" height="52" as="geometry"/>
        </mxCell>
        <mxCell id="FEzbrlHWn4osAoL8CdlV-49" value="其他" style="rounded=0;whiteSpace=wrap;html=1;fillColor=#f8cecc;strokeColor=#b85450;" parent="1" vertex="1">
          <mxGeometry x="177" y="333" width="70" height="52" as="geometry"/>
        </mxCell>
        <mxCell id="FEzbrlHWn4osAoL8CdlV-50" value="安全保障" style="text;html=1;strokeColor=none;fillColor=none;align=center;verticalAlign=middle;whiteSpace=wrap;rounded=0;" parent="1" vertex="1">
          <mxGeometry x="182.5" y="435" width="55" height="20" as="geometry"/>
        </mxCell>
        <mxCell id="FEzbrlHWn4osAoL8CdlV-54" value="Rest" style="rounded=0;whiteSpace=wrap;html=1;fillColor=#f8cecc;strokeColor=#b85450;" parent="1" vertex="1">
          <mxGeometry x="660" y="138" width="70" height="52" as="geometry"/>
        </mxCell>
        <mxCell id="FEzbrlHWn4osAoL8CdlV-55" value="Web Service" style="rounded=0;whiteSpace=wrap;html=1;fillColor=#f8cecc;strokeColor=#b85450;" parent="1" vertex="1">
          <mxGeometry x="658" y="235.5" width="80" height="52" as="geometry"/>
        </mxCell>
        <mxCell id="FEzbrlHWn4osAoL8CdlV-58" value="其他" style="rounded=0;whiteSpace=wrap;html=1;fillColor=#f8cecc;strokeColor=#b85450;" parent="1" vertex="1">
          <mxGeometry x="663" y="333" width="70" height="52" as="geometry"/>
        </mxCell>
        <mxCell id="FEzbrlHWn4osAoL8CdlV-59" value="标准规范" style="text;html=1;strokeColor=none;fillColor=none;align=center;verticalAlign=middle;whiteSpace=wrap;rounded=0;" parent="1" vertex="1">
          <mxGeometry x="672.5" y="430.5" width="55" height="20" as="geometry"/>
        </mxCell>
        <mxCell id="wnMKmI8B12amfmSu3XHW-1" value="信用体系" style="rounded=0;whiteSpace=wrap;html=1;fillColor=#dae8fc;strokeColor=#6c8ebf;gradientColor=#ffffff;" parent="1" vertex="1">
          <mxGeometry x="558" y="185" width="66" height="25" as="geometry"/>
        </mxCell>
        <mxCell id="wnMKmI8B12amfmSu3XHW-2" value="支付管理" style="rounded=0;whiteSpace=wrap;html=1;fillColor=#dae8fc;strokeColor=#6c8ebf;gradientColor=#ffffff;" parent="1" vertex="1">
          <mxGeometry x="558.5" y="217.5" width="66" height="25" as="geometry"/>
        </mxCell>
        <mxCell id="N1SsBvP0fdjC8GRGYzUU-1" value="Redis" style="rounded=1;whiteSpace=wrap;html=1;fillColor=#ffe6cc;strokeColor=#d79b00;gradientColor=#ffffff;" vertex="1" parent="1">
          <mxGeometry x="533" y="392.5" width="62" height="25" as="geometry"/>
        </mxCell>
        <mxCell id="N1SsBvP0fdjC8GRGYzUU-2" value="车辆信息" style="ellipse;whiteSpace=wrap;html=1;fillColor=#d5e8d4;strokeColor=#82b366;gradientColor=#ffffff;" vertex="1" parent="1">
          <mxGeometry x="555" y="280" width="70" height="20" as="geometry"/>
        </mxCell>
        <mxCell id="N1SsBvP0fdjC8GRGYzUU-3" value="" style="rounded=1;whiteSpace=wrap;html=1;strokeColor=#b85450;fillColor=#f8cecc;gradientColor=#ffffff;" vertex="1" parent="1">
          <mxGeometry x="160" y="20" width="590" height="60" as="geometry"/>
        </mxCell>
        <mxCell id="N1SsBvP0fdjC8GRGYzUU-4" value="货主" style="rounded=1;whiteSpace=wrap;html=1;strokeColor=#0000FF;" vertex="1" parent="1">
          <mxGeometry x="190" y="35" width="60" height="27" as="geometry"/>
        </mxCell>
        <mxCell id="N1SsBvP0fdjC8GRGYzUU-5" value="经纪人" style="rounded=1;whiteSpace=wrap;html=1;strokeColor=#0000FF;" vertex="1" parent="1">
          <mxGeometry x="267" y="35" width="60" height="27" as="geometry"/>
        </mxCell>
        <mxCell id="N1SsBvP0fdjC8GRGYzUU-6" value="司机" style="rounded=1;whiteSpace=wrap;html=1;strokeColor=#0000FF;" vertex="1" parent="1">
          <mxGeometry x="344" y="35" width="60" height="27" as="geometry"/>
        </mxCell>
        <mxCell id="N1SsBvP0fdjC8GRGYzUU-7" value="调度员" style="rounded=1;whiteSpace=wrap;html=1;strokeColor=#0000FF;" vertex="1" parent="1">
          <mxGeometry x="421" y="35" width="60" height="27" as="geometry"/>
        </mxCell>
        <mxCell id="N1SsBvP0fdjC8GRGYzUU-8" value="审核员" style="rounded=1;whiteSpace=wrap;html=1;strokeColor=#0000FF;" vertex="1" parent="1">
          <mxGeometry x="498" y="35" width="60" height="27" as="geometry"/>
        </mxCell>
        <mxCell id="N1SsBvP0fdjC8GRGYzUU-9" value="财务" style="rounded=1;whiteSpace=wrap;html=1;strokeColor=#0000FF;" vertex="1" parent="1">
          <mxGeometry x="575" y="35" width="60" height="27" as="geometry"/>
        </mxCell>
        <mxCell id="N1SsBvP0fdjC8GRGYzUU-10" value="系统管理员" style="rounded=1;whiteSpace=wrap;html=1;strokeColor=#0000FF;" vertex="1" parent="1">
          <mxGeometry x="652" y="35" width="68" height="27" as="geometry"/>
        </mxCell>
      </root>
    </mxGraphModel>
  </diagram>
</mxfile>
